<svg width="18" height="18" viewBox="0 0 18 18" fill="none" xmlns="http://www.w3.org/2000/svg">
<path d="M9.05324 9.98554L12.7657 6.27303C12.8349 6.2014 12.9177 6.14426 13.0092 6.10496C13.1007 6.06565 13.1991 6.04496 13.2987 6.0441C13.3983 6.04323 13.497 6.06221 13.5892 6.09992C13.6814 6.13763 13.7651 6.19332 13.8355 6.26374C13.906 6.33416 13.9616 6.4179 13.9994 6.51007C14.0371 6.60224 14.056 6.701 14.0552 6.80058C14.0543 6.90017 14.0336 6.99858 13.9943 7.09009C13.955 7.18159 13.8979 7.26435 13.8262 7.33353L9.58348 11.5763C9.44284 11.7169 9.25211 11.7959 9.05324 11.7959C8.85436 11.7959 8.66363 11.7169 8.52298 11.5763L4.28024 7.33353C4.2086 7.26435 4.15147 7.18159 4.11216 7.09009C4.07285 6.99858 4.05216 6.90017 4.0513 6.80058C4.05043 6.701 4.06941 6.60224 4.10712 6.51007C4.14483 6.4179 4.20052 6.33416 4.27094 6.26374C4.34136 6.19332 4.4251 6.13763 4.51727 6.09992C4.60944 6.06221 4.7082 6.04323 4.80779 6.0441C4.90737 6.04496 5.00579 6.06565 5.09729 6.10496C5.18879 6.14426 5.27155 6.2014 5.34074 6.27303L9.05324 9.98554Z" fill="#808D93"/>
</svg>
